<svg width="671" height="221" viewBox="0 0 671 221" fill="none" xmlns="http://www.w3.org/2000/svg">
<path d="M382.6 94.3952C382.452 89.3057 377.584 81.1501 374.187 81.2605C371.488 81.3464 369.146 83.2105 368.189 91.9547C367.233 100.699 366.889 114.68 366.644 121.977C366.387 129.274 366.828 143.856 367.319 148.994C367.809 154.133 370.532 157.604 376.37 157.432C382.207 157.26 383.434 155.58 383.936 152.183C384.439 148.786 384.685 141.44 384.329 133.775C383.973 126.11 382.759 99.4971 382.6 94.3952Z" fill="#252526"/>
<path d="M221.586 2.67286C210.168 0.980436 196.641 0.0115817 188.681 0.244597C167.195 0.882324 154.305 5.77565 151.656 6.7813C147.781 8.25297 141.44 17.3038 141.526 20.1981C141.649 24.1716 146.542 27.0046 153.042 26.8084C156.599 26.698 162.4 26.3301 162.326 23.6443C162.24 20.9585 152.159 20.4311 152.122 19.0698C152.061 17.034 164.533 14.8019 185.321 14.1887C238.093 12.6189 336.597 58.3881 338.081 108.217C339.136 143.88 291.662 151.459 270.887 152.073C262.057 152.33 253.043 151.337 244.298 149.485C244.139 138.509 243.82 125.349 243.673 120.26C243.514 114.962 243.599 107.076 243.624 100.539C262.903 100.662 294.188 103.986 294.409 111.565C294.556 116.593 283.273 117.317 283.359 120.432C283.408 122.05 289.552 125.043 294.801 124.883C300.05 124.724 310.046 118.948 309.714 107.653C309.285 93.0829 285.702 80.7699 246.346 81.9472L244.225 82.0208C244.2 79.5925 244.041 65.9795 242.385 58.5108C240.57 50.2939 235.775 44.9223 233.457 44.9836C227.693 45.1553 225.841 72.9577 225.449 83.8727C197.401 88.2264 173.425 99.2272 173.817 112.411C174.087 121.266 192.839 143.709 223.977 157.518C224.934 166.103 227.472 176.65 233.984 176.453C244.63 176.135 244.065 172.161 244.323 164.655C255.827 167.672 268.458 169.353 282.047 168.948C333.617 167.415 360.034 138.729 359.126 108.155C357.789 63.2079 288.032 12.5331 221.573 2.68513L221.586 2.67286ZM223.744 143.488C199.326 134.437 180.734 120.554 180.513 113.331C180.305 106.426 205.544 102.759 225.265 101.288C225.154 113.024 224.872 128.697 223.744 143.488Z" fill="#252526"/>
<path d="M422.666 34.1912C422.469 27.6422 418.226 21.3018 407.961 21.4612C406.992 19.0452 403.742 14.1641 392.153 14.5075C366.901 15.2556 347.475 33.9582 347.904 48.6995C348.052 53.4947 350.357 57.689 353.754 61.1229C352.871 63.5266 352.786 65.1455 352.81 66.0653C352.884 68.6285 356.734 75.3859 359.702 75.3001C362.204 75.2265 363.909 72.8841 366.325 69.0822C370.446 70.6765 374.542 71.486 377.804 71.3878C401.547 70.6765 423.095 48.4297 422.666 34.1912ZM367.846 39.9921C364.449 43.8062 361.75 47.1665 359.764 50.0976C359.408 49.4966 359.065 48.5523 359.016 47.0684C358.917 43.8062 364.547 31.3092 378.712 30.279C375.106 32.7563 371.451 35.9204 367.846 39.9798V39.9921ZM405.815 31.9469C410.402 31.812 411.604 34.645 411.702 37.7845C411.849 42.6656 403.007 56.9286 383.09 57.5173C378.724 57.6522 375.045 57.3211 372.101 56.8305C375.02 52.6975 390.178 32.4129 405.803 31.9469H405.815Z" fill="#252526"/>
<path d="M435.788 79.8868C421.881 80.3038 396.004 84.7065 392.3 97.3507C390.534 103.397 389.811 110.706 394.925 113.944C400.039 117.182 415.013 117.108 424.996 117.623C434.979 118.138 452.234 120.885 452.406 126.527C452.529 130.782 445.244 138.705 421.194 139.428C394.201 140.226 401.756 128.783 407.152 128.624C416.607 128.342 415.798 135.013 432.207 134.523C435.837 134.412 444.054 132.352 443.932 128.342C443.784 123.399 425.168 119.058 413.137 119.414C401.118 119.769 393.956 125.938 394.164 132.892C394.397 140.716 405.447 156.12 432.256 155.323C441.148 155.065 452.749 150.65 456.208 149.031C458.93 147.756 464.964 144.383 464.498 128.415C463.897 108.192 443.821 107.726 431.324 106.966C419.158 106.23 405.901 105.592 405.815 102.71C405.656 97.2649 449.794 95.3885 458.538 94.5055C465.958 93.7574 467.319 88.3244 467.245 85.7245C467.11 81.2849 449.696 79.4821 435.788 79.8868Z" fill="#252526"/>
<path d="M509.236 68.9963C502.283 69.2048 509.678 81.8981 514.424 106.512C516.521 117.39 518.986 127.25 515.675 127.348C512.352 127.446 492.668 84.8537 483.261 85.1235C471.672 85.4669 467.796 125.693 468.14 137.527C468.496 149.362 471.243 155.359 477.497 155.175C481.63 155.053 484.206 151.091 484.672 143.684C485.138 136.277 485.285 111.7 487.039 111.65C490.301 111.552 504.637 151.3 517.233 150.932C530.514 150.54 532.575 131.359 532.133 116.703C531.201 85.148 514.351 68.8492 509.212 68.9963H509.236Z" fill="#252526"/>
<path d="M583.63 131.972C578.431 132.131 565.774 134.511 561.114 135.835C556.453 137.16 552.836 137.957 553.988 134.351C554.908 131.481 556.932 124.663 557.717 122.014L581.484 121.302C586.12 121.167 586.365 118.837 586.758 113.061C587.15 107.285 583.226 108.02 578.774 108.155C578.774 108.155 570.9 108.474 562.487 108.891L566.252 98.8593C574.898 98.5404 583.912 97.5961 589.493 97.4366C600.395 97.1178 601.438 94.3216 601.401 93.1933C601.364 92.065 600.273 89.1585 597.403 85.0378C594.521 80.9293 591.958 79.1878 582.944 79.4454C574.555 79.6907 538.278 82.6463 538.425 87.6009C538.487 89.8575 541.688 94.8857 545.784 96.848C547.292 97.5715 549.242 98.0621 551.499 98.3932L545.931 109.872C545.134 109.934 544.459 110.007 543.92 110.069C537.174 110.829 539.002 115.293 539.75 119.34C540.081 121.131 540.51 121.952 541.062 122.308C538.769 128.526 536.365 136.534 536.549 142.507C536.88 153.777 546.667 160.069 553.866 159.848C570.655 159.345 586.733 145.769 589.713 142.924C592.693 140.079 588.818 131.8 583.618 131.947L583.63 131.972Z" fill="#252526"/>
<path d="M670.508 106.806C670.116 93.5491 665.038 84.1426 656.539 84.3879C644.104 84.7558 626.235 103.557 611.874 127.14C610.586 117.562 618.141 102.833 624.579 92.5189C629.105 85.2832 628.308 76.6739 626.431 76.7352C623.795 76.8088 598.335 98.3811 599.205 127.962C599.377 133.701 600.873 138.533 603.363 142.47C593.625 161.676 587.076 182.034 587.53 197.364C588.045 214.631 598.641 221.07 601.867 220.972C605.092 220.874 605.251 215.772 605.828 211.958C609.102 190.398 614.756 171.29 621.207 155.237C623.758 155.875 626.284 156.181 628.627 156.108C648.372 155.519 671.256 131.923 670.508 106.806ZM629.706 136.485C641.59 113.233 653.854 99.9877 658.17 99.8528C665.652 99.632 659.323 133.444 629.706 136.485Z" fill="#252526"/>
<path d="M161.369 90.9982C160.008 89.7841 158.414 89.1586 156.623 89.1586C155.397 89.1586 154.219 89.4898 153.14 90.152C152.037 90.8265 151.19 91.8812 150.638 93.2671L131.801 135.21C131.666 135.504 131.421 136.044 131.175 136.559C131.016 136.044 130.844 135.529 130.734 135.247C130.587 134.854 130.047 133.738 130.047 133.738L111.749 93.1322C110.523 90.4954 108.463 89.1586 105.63 89.1586C102.134 89.0728 98.1731 91.9058 98.2957 95.585C98.2957 96.5416 98.492 97.351 98.8722 98.1727L123.719 150.957C122.161 154.256 120.616 157.555 119.059 160.854C116.581 166.127 114.104 171.389 111.614 176.662C110.523 178.968 109.395 181.163 109.419 183.653C109.358 187.16 111.933 190.128 115.563 190.042C119.733 190.042 121.867 185.124 121.867 185.124L162.866 98.1604C163.246 97.3142 163.442 96.3944 163.442 95.4501C163.442 93.7331 162.743 92.2246 161.357 90.986L161.369 90.9982Z" fill="#252526"/>
<path d="M86.6941 65.7709C85.3696 64.3974 83.6526 63.7106 81.5923 63.7106C78.6857 63.7106 76.331 65.3907 74.5895 68.6897L45.5607 124.209C45.5607 124.209 45.0333 125.153 44.8862 125.497C44.739 125.84 44.4937 126.392 44.3465 126.735C44.1994 126.404 43.9418 125.84 43.8069 125.497C43.672 125.165 43.1324 124.209 43.1324 124.209L14.0913 68.6897C12.3498 65.3785 9.98288 63.7106 7.08858 63.7106C5.02823 63.7106 3.31127 64.4096 1.98676 65.7709C0.674519 67.1322 0 68.9105 0 71.0444V150.478C0 152.526 0.600935 154.206 1.77828 155.482C2.96788 156.77 4.58673 157.42 6.56123 157.42C8.53573 157.42 10.2527 156.782 11.4055 155.543C12.5461 154.317 13.1225 152.6 13.1225 150.466V94.0762L13.0979 92.8988L13.7111 94.3705L37.4542 138.852C39.1957 142.065 41.5136 143.696 44.3343 143.696C47.155 143.696 49.4729 142.065 51.2144 138.852L74.9574 94.3705L75.5706 92.8988L75.5461 94.0762V150.466C75.5461 152.6 76.1225 154.305 77.2631 155.543C78.4159 156.794 80.047 157.42 82.1073 157.42C84.1677 157.42 85.7007 156.77 86.8903 155.482C88.0676 154.206 88.6686 152.526 88.6686 150.478V71.0444C88.6686 68.9105 88.0063 67.1322 86.6818 65.7709H86.6941Z" fill="#252526"/>
</svg>
